
<svg xmlns="http://www.w3.org/2000/svg" version="1.1" xmlns:xlink="http://www.w3.org/1999/xlink" preserveAspectRatio="none" x="0px" y="0px" width="550px" height="400px" viewBox="0 0 550 400">
<defs>
<path id="Layer0_0_1_STROKES" stroke="#FF0000" stroke-width="1" stroke-linejoin="round" stroke-linecap="round" fill="none" d="
M 231.25 162.65
Q 254.6 195.2 220.85 214
L 125.85 285.4
Q 112.75 296.35 138.85 303.4
L 448.85 346.8
Q 454.5 347.4 458.85 347.6 462.25 347.7 464.85 347.6 473 347.15 471.3 342.9 469.9 339.55 462.55 333.9 461.75 333.3 439.7 311.45 435.9 307.65 433 303.9 423.35 291.35 423.65 278.9 423.65 277.4 423.85 275.9 423.95 274.9 424.15 273.9 424.7 270.9 423.85 259.9
L 248.85 245.9
Q 225.4 241.25 248.85 224.9
L 312.85 181.95
Q 347.6 153.5 316.85 135.95
L 239.85 98.95
Q 217.85 118.4 188.85 99.95 156.4 77.4 157.85 69.95 160.9 42.65 133.85 37.95 79.25 45.75 100.85 77.95
L 151.85 106.95
Q 175.85 119.45 177.9 140.7
L 208.85 160.95
Q 218.1 165.3 231.25 162.65 Z"/>
</defs>

<g transform="matrix( 1, 0, 0, 1, 0,0) ">
<use xlink:href="#Layer0_0_1_STROKES"/>
</g>
</svg>